<svg width="9545" height="6185" viewBox="0 0 9545 6185" fill="none" xmlns="http://www.w3.org/2000/svg">
<line x1="4309.22" y1="2768.03" x2="4569.22" y2="3073.03" stroke="white" stroke-width="40"/>
<path d="M2578.36 2799.71C2650.3 2797.11 2701.73 2789.62 2732.66 2777.25C2785.72 2755.44 2812.25 2714.43 2812.25 2654.21C2812.25 2596.26 2788.48 2556.71 2740.96 2535.55C2715.57 2524.16 2681.87 2518.46 2639.88 2518.46C2611.56 2518.46 2594.15 2520.58 2587.64 2524.81C2581.45 2528.72 2578.36 2538.16 2578.36 2553.13V2799.71ZM2390.86 3123.93C2429.27 3120.35 2453.2 3112.87 2462.64 3101.47C2472.08 3090.08 2476.8 3063.55 2476.8 3021.88V2588.78C2476.8 2553.62 2471.42 2530.67 2460.68 2519.93C2450.27 2508.86 2426.99 2501.86 2390.86 2498.93V2480.38H2667.71C2725.33 2480.38 2773.35 2487.7 2811.76 2502.35C2884.67 2530.02 2921.13 2580.96 2921.13 2655.18C2921.13 2704.99 2904.86 2743.24 2872.3 2769.93C2840.08 2796.62 2796.13 2814.2 2740.47 2822.66L2946.52 3076.08C2959.22 3091.71 2971.91 3103.1 2984.61 3110.26C2997.3 3117.42 3013.58 3121.98 3033.44 3123.93V3142H2872.3L2634.02 2834.38L2578.36 2836.82V3033.6C2578.36 3070.71 2583.89 3094.31 2594.96 3104.4C2606.35 3114.17 2630.93 3120.68 2668.69 3123.93V3142H2390.86V3123.93ZM3035.41 3128.33C3062.1 3124.75 3079.52 3118.24 3087.66 3108.8C3096.12 3099.03 3100.35 3076.24 3100.35 3040.44V2571.69C3100.35 2553.46 3097.91 2540.11 3093.03 2531.65C3088.47 2522.86 3077.08 2518.46 3058.85 2518.46C3055.27 2518.46 3051.69 2518.79 3048.1 2519.44C3044.85 2519.77 3041.11 2520.26 3036.87 2520.91V2503.33C3051.2 2499.1 3068.78 2494.05 3089.61 2488.19C3110.77 2482.01 3125.42 2477.61 3133.55 2475.01L3180.43 2460.36L3181.41 2463.78V2763.58C3201.91 2740.14 3220.14 2722.89 3236.09 2711.82C3264.74 2692.29 3295.66 2682.53 3328.87 2682.53C3381.6 2682.53 3417.57 2704.66 3436.78 2748.93C3447.19 2772.37 3452.4 2803.13 3452.4 2841.22V3040.44C3452.4 3074.94 3456.31 3097.4 3464.12 3107.82C3472.26 3118.24 3488.7 3125.07 3513.44 3128.33V3142H3302.01V3128.33C3330.33 3124.42 3348.56 3117.75 3356.7 3108.31C3364.84 3098.87 3368.91 3076.24 3368.91 3040.44V2842.68C3368.91 2811.11 3363.53 2785.55 3352.79 2766.02C3342.38 2746.49 3322.52 2736.73 3293.22 2736.73C3267.83 2736.73 3243.25 2745.84 3219.49 2764.07C3195.73 2782.3 3183.85 2794.18 3183.85 2799.71V3040.44C3183.85 3076.9 3188.08 3099.68 3196.54 3108.8C3205.01 3117.91 3223.07 3124.42 3250.74 3128.33V3142H3035.41V3128.33ZM3588.65 2511.63C3588.65 2497.63 3593.53 2485.59 3603.3 2475.5C3613.07 2465.4 3625.11 2460.36 3639.43 2460.36C3653.43 2460.36 3665.31 2465.4 3675.08 2475.5C3685.17 2485.26 3690.21 2497.31 3690.21 2511.63C3690.21 2525.63 3685.17 2537.67 3675.08 2547.76C3665.31 2557.53 3653.43 2562.41 3639.43 2562.41C3625.11 2562.41 3613.07 2557.53 3603.3 2547.76C3593.53 2537.67 3588.65 2525.63 3588.65 2511.63ZM3526.15 3128.33C3560.98 3125.07 3582.95 3119.21 3592.07 3110.75C3601.18 3101.96 3605.74 3078.52 3605.74 3040.44V2807.53C3605.74 2786.37 3604.28 2771.72 3601.35 2763.58C3596.46 2750.24 3586.21 2743.56 3570.58 2743.56C3567 2743.56 3563.42 2743.89 3559.84 2744.54C3556.59 2745.19 3546.82 2747.79 3530.55 2752.35V2737.21L3551.54 2730.38C3608.51 2711.82 3648.22 2697.83 3670.68 2688.39C3679.8 2684.48 3685.66 2682.53 3688.26 2682.53C3688.91 2684.81 3689.24 2687.25 3689.24 2689.85V3040.44C3689.24 3077.55 3693.63 3100.82 3702.42 3110.26C3711.54 3119.7 3731.88 3125.72 3763.46 3128.33V3142H3526.15V3128.33ZM4169.73 2693.27V2704.99L3898.73 3111.24H4036.91C4084.76 3111.24 4115.04 3105.22 4127.73 3093.17C4140.43 3080.8 4152.96 3050.85 4165.33 3003.33L4182.42 3006.75L4168.75 3142H3790.33V3130.77L4057.42 2723.05H3926.56C3891.41 2723.05 3868.46 2729.08 3857.71 2741.12C3846.97 2753.17 3839.48 2776.6 3835.25 2811.43H3818.16L3820.12 2693.27H4169.73ZM4214.67 2915.44C4214.67 2850.66 4235.17 2795.97 4276.19 2751.38C4317.53 2706.45 4370.59 2683.99 4435.37 2683.99C4499.82 2683.99 4553.21 2705.15 4595.53 2747.47C4637.84 2789.79 4659 2846.1 4659 2916.41C4659 2981.19 4638.5 3037.51 4597.48 3085.36C4556.46 3133.21 4503.4 3157.14 4438.3 3157.14C4375.8 3157.14 4322.9 3134.19 4279.61 3088.29C4236.31 3042.39 4214.67 2984.77 4214.67 2915.44ZM4421.7 2713.29C4395.98 2713.29 4373.68 2721.75 4354.8 2738.68C4322.25 2768.3 4305.98 2819.41 4305.98 2892C4305.98 2949.94 4319 3003.98 4345.04 3054.11C4371.41 3104.24 4407.86 3129.3 4454.41 3129.3C4490.87 3129.3 4518.87 3112.54 4538.4 3079.01C4558.25 3045.48 4568.18 3001.54 4568.18 2947.18C4568.18 2890.86 4555.65 2837.8 4530.58 2788C4505.52 2738.19 4469.22 2713.29 4421.7 2713.29ZM4685.39 3129.3C4710.78 3127.03 4727.71 3122.79 4736.17 3116.61C4749.19 3107.17 4755.7 3088.29 4755.7 3059.97V2807.53C4755.7 2783.44 4752.45 2767.65 4745.94 2760.16C4739.75 2752.68 4729.33 2748.93 4714.69 2748.93C4707.85 2748.93 4702.64 2749.26 4699.06 2749.91C4695.81 2750.56 4691.9 2751.7 4687.34 2753.33V2736.24L4722.5 2724.52C4735.19 2720.29 4756.03 2712.64 4785 2701.57C4813.97 2690.5 4829.27 2684.97 4830.9 2684.97C4832.53 2684.97 4833.5 2685.78 4833.83 2687.41C4834.15 2689.04 4834.32 2692.13 4834.32 2696.69V2762.61C4866.54 2733.31 4894.37 2713.13 4917.81 2702.06C4941.25 2690.67 4965.34 2684.97 4990.08 2684.97C5023.61 2684.97 5050.3 2696.36 5070.16 2719.15C5080.57 2731.52 5089.2 2748.28 5096.03 2769.44C5120.12 2745.03 5141.12 2726.96 5159.02 2715.24C5189.95 2695.06 5221.52 2684.97 5253.75 2684.97C5306.16 2684.97 5341.15 2706.29 5358.73 2748.93C5368.82 2773.02 5373.87 2811.11 5373.87 2863.19V3065.83C5373.87 3088.94 5378.91 3104.73 5389 3113.19C5399.42 3121.33 5417.97 3126.7 5444.67 3129.3V3142H5224.45V3128.33C5252.77 3125.72 5271.33 3120.03 5280.12 3111.24C5289.23 3102.45 5293.79 3084.55 5293.79 3057.53V2847.08C5293.79 2815.5 5290.37 2792.23 5283.53 2777.25C5271.49 2750.56 5247.89 2737.21 5212.73 2737.21C5191.57 2737.21 5170.58 2744.21 5149.75 2758.21C5137.7 2766.35 5122.89 2779.37 5105.31 2797.27V3047.27C5105.31 3073.64 5109.87 3093.66 5118.98 3107.33C5128.42 3121 5148.12 3128.33 5178.07 3129.3V3142H4953.94V3129.3C4984.87 3125.4 5004.56 3117.91 5013.03 3106.84C5021.49 3095.78 5025.72 3068.6 5025.72 3025.3V2888.58C5025.72 2838.45 5022.47 2803.95 5015.96 2785.07C5005.21 2753.17 4982.43 2737.21 4947.6 2737.21C4927.74 2737.21 4908.21 2742.75 4889 2753.82C4869.8 2764.56 4852.87 2778.72 4838.22 2796.3V3063.39C4838.22 3088.13 4842.45 3105.22 4850.92 3114.66C4859.71 3124.1 4878.59 3128.98 4907.56 3129.3V3142H4685.39V3129.3ZM5714.22 2871.49C5676.78 2883.86 5645.86 2897.53 5621.44 2912.51C5574.57 2941.48 5551.13 2974.36 5551.13 3011.14C5551.13 3040.76 5560.9 3062.57 5580.43 3076.57C5593.12 3085.68 5607.28 3090.24 5622.91 3090.24C5644.39 3090.24 5664.9 3084.22 5684.43 3072.18C5704.29 3060.13 5714.22 3044.83 5714.22 3026.28V2871.49ZM5464.22 3044.83C5464.22 2997.63 5487.82 2958.24 5535.02 2926.67C5564.97 2907.14 5624.7 2880.61 5714.22 2847.08V2805.57C5714.22 2772.37 5710.96 2749.26 5704.45 2736.24C5693.38 2714.43 5670.44 2703.52 5635.6 2703.52C5619 2703.52 5603.22 2707.76 5588.24 2716.22C5573.27 2725.01 5565.78 2737.05 5565.78 2752.35C5565.78 2756.26 5566.59 2762.93 5568.22 2772.37C5569.85 2781.49 5570.66 2787.35 5570.66 2789.95C5570.66 2808.18 5564.64 2820.87 5552.6 2828.04C5545.76 2832.27 5537.62 2834.38 5528.18 2834.38C5513.53 2834.38 5502.3 2829.66 5494.49 2820.22C5486.68 2810.46 5482.77 2799.71 5482.77 2788C5482.77 2765.21 5496.77 2741.45 5524.76 2716.71C5553.08 2691.64 5594.43 2679.11 5648.79 2679.11C5711.94 2679.11 5754.75 2699.62 5777.21 2740.63C5789.25 2763.09 5795.27 2795.81 5795.27 2838.78V3034.58C5795.27 3053.46 5796.57 3066.48 5799.18 3073.64C5803.41 3086.34 5812.2 3092.68 5825.55 3092.68C5833.03 3092.68 5839.22 3091.54 5844.1 3089.27C5848.98 3086.99 5857.45 3081.45 5869.49 3072.66V3098.05C5859.07 3110.75 5847.84 3121.17 5835.8 3129.3C5817.57 3141.67 5799.02 3147.86 5780.14 3147.86C5758 3147.86 5741.89 3140.7 5731.8 3126.38C5722.03 3112.05 5716.66 3094.96 5715.68 3075.11C5690.94 3096.59 5669.78 3112.54 5652.21 3122.96C5622.58 3140.54 5594.43 3149.32 5567.73 3149.32C5539.74 3149.32 5515.49 3139.56 5494.98 3120.03C5474.47 3100.17 5464.22 3075.11 5464.22 3044.83ZM6106.33 2691.8V2726.96H6006.72L6005.74 3008.21C6005.74 3032.95 6007.86 3051.67 6012.09 3064.36C6019.9 3086.82 6035.2 3098.05 6057.99 3098.05C6069.71 3098.05 6079.8 3095.29 6088.26 3089.75C6097.05 3084.22 6106.98 3075.43 6118.05 3063.39L6130.74 3074.13L6120 3088.78C6103.07 3111.56 6085.17 3127.68 6066.29 3137.12C6047.41 3146.56 6029.18 3151.28 6011.6 3151.28C5973.19 3151.28 5947.15 3134.19 5933.48 3100.01C5925.99 3081.45 5922.25 3055.74 5922.25 3022.86V2726.96H5869.02C5867.39 2725.98 5866.09 2725.01 5865.12 2724.03C5864.47 2723.05 5864.14 2721.75 5864.14 2720.12C5864.14 2716.87 5864.79 2714.43 5866.09 2712.8C5867.72 2710.85 5872.44 2706.62 5880.25 2700.11C5902.71 2681.55 5918.83 2666.58 5928.59 2655.18C5938.68 2643.46 5962.12 2612.87 5998.91 2563.39C6003.14 2563.39 6005.58 2563.71 6006.23 2564.36C6007.21 2565.01 6007.69 2567.46 6007.69 2571.69V2691.8H6106.33ZM6192.28 2511.63C6192.28 2497.63 6197.17 2485.59 6206.93 2475.5C6216.7 2465.4 6228.74 2460.36 6243.07 2460.36C6257.06 2460.36 6268.94 2465.4 6278.71 2475.5C6288.8 2485.26 6293.85 2497.31 6293.85 2511.63C6293.85 2525.63 6288.8 2537.67 6278.71 2547.76C6268.94 2557.53 6257.06 2562.41 6243.07 2562.41C6228.74 2562.41 6216.7 2557.53 6206.93 2547.76C6197.17 2537.67 6192.28 2525.63 6192.28 2511.63ZM6129.78 3128.33C6164.61 3125.07 6186.59 3119.21 6195.7 3110.75C6204.82 3101.96 6209.37 3078.52 6209.37 3040.44V2807.53C6209.37 2786.37 6207.91 2771.72 6204.98 2763.58C6200.1 2750.24 6189.84 2743.56 6174.22 2743.56C6170.64 2743.56 6167.06 2743.89 6163.48 2744.54C6160.22 2745.19 6150.45 2747.79 6134.18 2752.35V2737.21L6155.17 2730.38C6212.14 2711.82 6251.85 2697.83 6274.32 2688.39C6283.43 2684.48 6289.29 2682.53 6291.89 2682.53C6292.54 2684.81 6292.87 2687.25 6292.87 2689.85V3040.44C6292.87 3077.55 6297.26 3100.82 6306.05 3110.26C6315.17 3119.7 6335.51 3125.72 6367.09 3128.33V3142H6129.78V3128.33ZM6617.11 2681.55C6657.8 2681.55 6692.79 2692.13 6722.09 2713.29C6751.71 2734.12 6766.52 2757.07 6766.52 2782.14C6766.52 2792.88 6762.78 2802.97 6755.29 2812.41C6747.81 2821.52 6736.25 2826.08 6720.62 2826.08C6709.23 2826.08 6699.14 2822.18 6690.35 2814.36C6681.89 2806.55 6675.7 2795.16 6671.8 2780.18L6665.94 2756.75C6661.7 2739.49 6654.38 2727.29 6643.96 2720.12C6633.22 2713.29 6619.06 2709.87 6601.48 2709.87C6564.37 2709.87 6532.96 2726.15 6507.25 2758.7C6481.85 2790.93 6469.16 2833.89 6469.16 2887.61C6469.16 2936.76 6483.16 2980.87 6511.15 3019.93C6539.47 3058.99 6577.56 3078.52 6625.41 3078.52C6659.26 3078.52 6689.37 3067.46 6715.74 3045.32C6730.72 3032.62 6747.64 3012.44 6766.52 2984.77L6780.19 2993.07C6761.64 3032.14 6742.11 3063.06 6721.6 3085.85C6682.21 3129.47 6636.64 3151.28 6584.88 3151.28C6534.1 3151.28 6489.18 3131.26 6450.12 3091.22C6411.05 3051.18 6391.52 2996.82 6391.52 2928.13C6391.52 2860.75 6412.84 2802.81 6455.49 2754.3C6498.13 2705.8 6552 2681.55 6617.11 2681.55Z" fill="white"/>
<path d="M3915.21 3559.97C3933.6 3558.01 3945.48 3554.76 3950.85 3550.2C3956.38 3545.48 3959.15 3533.68 3959.15 3514.8V3292.39C3959.15 3274.65 3956.46 3263.09 3951.09 3257.72C3945.72 3252.19 3933.76 3248.77 3915.21 3247.47V3238.19H4056.56V3247.47C4038.17 3248.44 4025.8 3251.45 4019.45 3256.5C4013.27 3261.55 4010.18 3272.37 4010.18 3288.97V3529.21C4010.18 3534.74 4011.07 3539.13 4012.86 3542.39C4014.81 3545.48 4018.96 3547.43 4025.31 3548.25C4029.06 3548.74 4032.96 3549.06 4037.03 3549.22C4041.26 3549.39 4049.08 3549.47 4060.47 3549.47C4104.9 3549.47 4134.93 3545.81 4150.56 3538.48C4166.18 3531.16 4181.32 3512.44 4195.97 3482.33H4208.66L4184.25 3569H3915.21V3559.97ZM4381.06 3433.75C4362.35 3439.93 4346.88 3446.77 4334.68 3454.25C4311.24 3468.74 4299.52 3485.18 4299.52 3503.57C4299.52 3518.38 4304.4 3529.29 4314.17 3536.29C4320.52 3540.84 4327.6 3543.12 4335.41 3543.12C4346.15 3543.12 4356.41 3540.11 4366.17 3534.09C4376.1 3528.07 4381.06 3520.42 4381.06 3511.14V3433.75ZM4256.06 3520.42C4256.06 3496.82 4267.86 3477.12 4291.46 3461.33C4306.44 3451.57 4336.31 3438.3 4381.06 3421.54V3400.79C4381.06 3384.19 4379.44 3372.63 4376.18 3366.12C4370.65 3355.21 4359.17 3349.76 4341.76 3349.76C4333.46 3349.76 4325.56 3351.88 4318.08 3356.11C4310.59 3360.5 4306.85 3366.53 4306.85 3374.18C4306.85 3376.13 4307.25 3379.47 4308.07 3384.19C4308.88 3388.74 4309.29 3391.67 4309.29 3392.97C4309.29 3402.09 4306.28 3408.44 4300.25 3412.02C4296.84 3414.13 4292.77 3415.19 4288.05 3415.19C4280.72 3415.19 4275.11 3412.83 4271.2 3408.11C4267.29 3403.23 4265.34 3397.86 4265.34 3392C4265.34 3380.6 4272.34 3368.72 4286.34 3356.35C4300.5 3343.82 4321.17 3337.55 4348.35 3337.55C4379.93 3337.55 4401.33 3347.81 4412.56 3368.32C4418.58 3379.55 4421.59 3395.9 4421.59 3417.39V3515.29C4421.59 3524.73 4422.24 3531.24 4423.54 3534.82C4425.66 3541.17 4430.06 3544.34 4436.73 3544.34C4440.47 3544.34 4443.56 3543.77 4446.01 3542.63C4448.45 3541.49 4452.68 3538.73 4458.7 3534.33V3547.03C4453.49 3553.38 4447.88 3558.58 4441.86 3562.65C4432.74 3568.84 4423.46 3571.93 4414.02 3571.93C4402.96 3571.93 4394.9 3568.35 4389.85 3561.19C4384.97 3554.03 4382.29 3545.48 4381.8 3535.55C4369.43 3546.29 4358.85 3554.27 4350.06 3559.48C4335.25 3568.27 4321.17 3572.66 4307.82 3572.66C4293.82 3572.66 4281.7 3567.78 4271.45 3558.01C4261.19 3548.09 4256.06 3535.55 4256.06 3520.42ZM4484.13 3258.45V3250.15C4502.69 3245.92 4519.37 3241.2 4534.18 3235.99C4548.99 3230.78 4556.97 3228.18 4558.11 3228.18C4558.43 3229.16 4558.59 3230.13 4558.59 3231.11V3379.79C4562.83 3371.98 4569.17 3364.57 4577.64 3357.57C4592.61 3345.37 4609.86 3339.26 4629.39 3339.26C4653.32 3339.26 4673.75 3349.35 4690.67 3369.54C4707.6 3389.72 4716.06 3415.92 4716.06 3448.15C4716.06 3482.66 4705.08 3512.2 4683.11 3536.77C4661.13 3561.35 4632.24 3573.64 4596.44 3573.64C4578.37 3573.64 4560.63 3570.06 4543.21 3562.9C4525.8 3555.74 4517.09 3548.57 4517.09 3541.41V3283.36C4517.09 3273.92 4515.79 3267.24 4513.18 3263.34C4510.58 3259.27 4504.56 3257.23 4495.12 3257.23L4484.13 3258.45ZM4557.62 3533.36C4559.08 3541.82 4565.43 3547.92 4576.66 3551.67C4587.89 3555.25 4597.74 3557.04 4606.2 3557.04C4628.99 3557.04 4645.83 3548.49 4656.74 3531.4C4667.81 3514.31 4673.34 3493.64 4673.34 3469.39C4673.34 3445.14 4668.21 3422.76 4657.96 3402.25C4647.71 3381.58 4631.1 3371.25 4608.15 3371.25C4596.6 3371.25 4585.29 3374.83 4574.22 3381.99C4563.15 3388.99 4557.62 3397.94 4557.62 3408.84V3533.36ZM4767.62 3455.72C4767.62 3423.33 4777.87 3395.99 4798.38 3373.69C4819.05 3351.23 4845.58 3340 4877.97 3340C4910.2 3340 4936.89 3350.58 4958.05 3371.73C4979.21 3392.89 4989.79 3421.05 4989.79 3456.21C4989.79 3488.6 4979.53 3516.75 4959.02 3540.68C4938.52 3564.61 4911.99 3576.57 4879.43 3576.57C4848.18 3576.57 4821.74 3565.09 4800.09 3542.14C4778.44 3519.2 4767.62 3490.39 4767.62 3455.72ZM4871.13 3354.64C4858.27 3354.64 4847.13 3358.88 4837.69 3367.34C4821.41 3382.15 4813.27 3407.7 4813.27 3444C4813.27 3472.97 4819.78 3499.99 4832.8 3525.05C4845.99 3550.12 4864.22 3562.65 4887.49 3562.65C4905.72 3562.65 4919.72 3554.27 4929.48 3537.51C4939.41 3520.74 4944.38 3498.77 4944.38 3471.59C4944.38 3443.43 4938.11 3416.9 4925.58 3392C4913.04 3367.1 4894.9 3354.64 4871.13 3354.64ZM5029.62 3560.94C5044.59 3559.64 5054.52 3557.04 5059.4 3553.13C5064.29 3549.06 5066.73 3540.52 5066.73 3527.5V3417.39C5066.73 3401.28 5065.18 3389.8 5062.09 3382.96C5059.16 3375.97 5053.71 3372.47 5045.73 3372.47C5044.1 3372.47 5041.91 3372.71 5039.14 3373.2C5036.54 3373.52 5033.77 3374.01 5030.84 3374.66V3366.61C5040.12 3363.35 5049.64 3360.02 5059.4 3356.6C5069.17 3353.18 5075.92 3350.74 5079.67 3349.27C5087.81 3346.18 5096.19 3342.68 5104.81 3338.78C5105.95 3338.78 5106.6 3339.18 5106.77 3340C5107.09 3340.81 5107.26 3342.52 5107.26 3345.12V3385.16C5117.67 3370.68 5127.68 3359.36 5137.29 3351.23C5147.05 3343.09 5157.14 3339.02 5167.56 3339.02C5175.86 3339.02 5182.61 3341.54 5187.82 3346.59C5193.03 3351.47 5195.63 3357.66 5195.63 3365.14C5195.63 3371.82 5193.6 3377.43 5189.53 3381.99C5185.62 3386.55 5180.66 3388.82 5174.64 3388.82C5168.45 3388.82 5162.19 3385.98 5155.84 3380.28C5149.65 3374.58 5144.77 3371.73 5141.19 3371.73C5135.49 3371.73 5128.5 3376.37 5120.2 3385.65C5111.89 3394.76 5107.74 3404.21 5107.74 3413.97V3524.08C5107.74 3538.08 5111 3547.84 5117.51 3553.38C5124.02 3558.75 5134.84 3561.27 5149.98 3560.94V3569H5029.62V3560.94ZM5359.74 3433.75C5341.02 3439.93 5325.56 3446.77 5313.35 3454.25C5289.91 3468.74 5278.19 3485.18 5278.19 3503.57C5278.19 3518.38 5283.08 3529.29 5292.84 3536.29C5299.19 3540.84 5306.27 3543.12 5314.08 3543.12C5324.82 3543.12 5335.08 3540.11 5344.84 3534.09C5354.77 3528.07 5359.74 3520.42 5359.74 3511.14V3433.75ZM5234.74 3520.42C5234.74 3496.82 5246.54 3477.12 5270.14 3461.33C5285.11 3451.57 5314.98 3438.3 5359.74 3421.54V3400.79C5359.74 3384.19 5358.11 3372.63 5354.85 3366.12C5349.32 3355.21 5337.85 3349.76 5320.43 3349.76C5312.13 3349.76 5304.24 3351.88 5296.75 3356.11C5289.26 3360.5 5285.52 3366.53 5285.52 3374.18C5285.52 3376.13 5285.92 3379.47 5286.74 3384.19C5287.55 3388.74 5287.96 3391.67 5287.96 3392.97C5287.96 3402.09 5284.95 3408.44 5278.93 3412.02C5275.51 3414.13 5271.44 3415.19 5266.72 3415.19C5259.39 3415.19 5253.78 3412.83 5249.87 3408.11C5245.97 3403.23 5244.01 3397.86 5244.01 3392C5244.01 3380.6 5251.01 3368.72 5265.01 3356.35C5279.17 3343.82 5299.84 3337.55 5327.02 3337.55C5358.6 3337.55 5380 3347.81 5391.23 3368.32C5397.25 3379.55 5400.26 3395.9 5400.26 3417.39V3515.29C5400.26 3524.73 5400.91 3531.24 5402.22 3534.82C5404.33 3541.17 5408.73 3544.34 5415.4 3544.34C5419.14 3544.34 5422.24 3543.77 5424.68 3542.63C5427.12 3541.49 5431.35 3538.73 5437.37 3534.33V3547.03C5432.16 3553.38 5426.55 3558.58 5420.53 3562.65C5411.41 3568.84 5402.14 3571.93 5392.7 3571.93C5381.63 3571.93 5373.57 3568.35 5368.53 3561.19C5363.64 3554.03 5360.96 3545.48 5360.47 3535.55C5348.1 3546.29 5337.52 3554.27 5328.73 3559.48C5313.92 3568.27 5299.84 3572.66 5286.49 3572.66C5272.5 3572.66 5260.37 3567.78 5250.12 3558.01C5239.86 3548.09 5234.74 3535.55 5234.74 3520.42ZM5588.29 3343.9V3361.48H5538.49L5538 3502.11C5538 3514.48 5539.06 3523.83 5541.17 3530.18C5545.08 3541.41 5552.73 3547.03 5564.12 3547.03C5569.98 3547.03 5575.03 3545.64 5579.26 3542.88C5583.65 3540.11 5588.62 3535.72 5594.15 3529.69L5600.5 3535.06L5595.13 3542.39C5586.66 3553.78 5577.71 3561.84 5568.27 3566.56C5558.83 3571.28 5549.72 3573.64 5540.93 3573.64C5521.72 3573.64 5508.7 3565.09 5501.87 3548C5498.12 3538.73 5496.25 3525.87 5496.25 3509.43V3361.48H5469.64C5468.82 3360.99 5468.17 3360.5 5467.69 3360.02C5467.36 3359.53 5467.2 3358.88 5467.2 3358.06C5467.2 3356.43 5467.52 3355.21 5468.17 3354.4C5468.99 3353.42 5471.35 3351.31 5475.25 3348.05C5486.48 3338.78 5494.54 3331.29 5499.42 3325.59C5504.47 3319.73 5516.19 3304.43 5534.58 3279.69C5536.7 3279.69 5537.92 3279.86 5538.24 3280.18C5538.73 3280.51 5538.97 3281.73 5538.97 3283.84V3343.9H5588.29ZM5635.45 3455.72C5635.45 3423.33 5645.7 3395.99 5666.21 3373.69C5686.88 3351.23 5713.41 3340 5745.8 3340C5778.03 3340 5804.72 3350.58 5825.88 3371.73C5847.04 3392.89 5857.62 3421.05 5857.62 3456.21C5857.62 3488.6 5847.36 3516.75 5826.86 3540.68C5806.35 3564.61 5779.82 3576.57 5747.27 3576.57C5716.02 3576.57 5689.57 3565.09 5667.92 3542.14C5646.27 3519.2 5635.45 3490.39 5635.45 3455.72ZM5738.96 3354.64C5726.11 3354.64 5714.96 3358.88 5705.52 3367.34C5689.24 3382.15 5681.1 3407.7 5681.1 3444C5681.1 3472.97 5687.61 3499.99 5700.63 3525.05C5713.82 3550.12 5732.05 3562.65 5755.32 3562.65C5773.55 3562.65 5787.55 3554.27 5797.31 3537.51C5807.24 3520.74 5812.21 3498.77 5812.21 3471.59C5812.21 3443.43 5805.94 3416.9 5793.41 3392C5780.88 3367.1 5762.73 3354.64 5738.96 3354.64ZM5897.45 3560.94C5912.43 3559.64 5922.35 3557.04 5927.24 3553.13C5932.12 3549.06 5934.56 3540.52 5934.56 3527.5V3417.39C5934.56 3401.28 5933.01 3389.8 5929.92 3382.96C5926.99 3375.97 5921.54 3372.47 5913.56 3372.47C5911.94 3372.47 5909.74 3372.71 5906.97 3373.2C5904.37 3373.52 5901.6 3374.01 5898.67 3374.66V3366.61C5907.95 3363.35 5917.47 3360.02 5927.24 3356.6C5937 3353.18 5943.76 3350.74 5947.5 3349.27C5955.64 3346.18 5964.02 3342.68 5972.65 3338.78C5973.79 3338.78 5974.44 3339.18 5974.6 3340C5974.93 3340.81 5975.09 3342.52 5975.09 3345.12V3385.16C5985.5 3370.68 5995.51 3359.36 6005.12 3351.23C6014.88 3343.09 6024.97 3339.02 6035.39 3339.02C6043.69 3339.02 6050.45 3341.54 6055.65 3346.59C6060.86 3351.47 6063.47 3357.66 6063.47 3365.14C6063.47 3371.82 6061.43 3377.43 6057.36 3381.99C6053.46 3386.55 6048.49 3388.82 6042.47 3388.82C6036.29 3388.82 6030.02 3385.98 6023.67 3380.28C6017.49 3374.58 6012.6 3371.73 6009.02 3371.73C6003.33 3371.73 5996.33 3376.37 5988.03 3385.65C5979.73 3394.76 5975.58 3404.21 5975.58 3413.97V3524.08C5975.58 3538.08 5978.83 3547.84 5985.34 3553.38C5991.85 3558.75 6002.68 3561.27 6017.81 3560.94V3569H5897.45V3560.94ZM6125.27 3253.81C6125.27 3246.82 6127.71 3240.79 6132.6 3235.75C6137.48 3230.7 6143.5 3228.18 6150.66 3228.18C6157.66 3228.18 6163.6 3230.7 6168.49 3235.75C6173.53 3240.63 6176.05 3246.65 6176.05 3253.81C6176.05 3260.81 6173.53 3266.84 6168.49 3271.88C6163.6 3276.76 6157.66 3279.21 6150.66 3279.21C6143.5 3279.21 6137.48 3276.76 6132.6 3271.88C6127.71 3266.84 6125.27 3260.81 6125.27 3253.81ZM6094.02 3562.16C6111.44 3560.54 6122.43 3557.61 6126.98 3553.38C6131.54 3548.98 6133.82 3537.26 6133.82 3518.22V3401.76C6133.82 3391.18 6133.09 3383.86 6131.62 3379.79C6129.18 3373.12 6124.05 3369.78 6116.24 3369.78C6114.45 3369.78 6112.66 3369.94 6110.87 3370.27C6109.24 3370.6 6104.36 3371.9 6096.22 3374.18V3366.61L6106.72 3363.19C6135.2 3353.91 6155.06 3346.91 6166.29 3342.19C6170.85 3340.24 6173.78 3339.26 6175.08 3339.26C6175.4 3340.4 6175.57 3341.62 6175.57 3342.93V3518.22C6175.57 3536.77 6177.76 3548.41 6182.16 3553.13C6186.72 3557.85 6196.89 3560.86 6212.68 3562.16V3569H6094.02V3562.16ZM6360.42 3340C6383.37 3340 6403.47 3347.97 6420.72 3363.92C6437.98 3379.71 6446.6 3402.17 6446.6 3431.3H6291.57C6293.2 3469.07 6301.74 3496.57 6317.21 3513.82C6332.67 3531.08 6350.98 3539.7 6372.14 3539.7C6389.23 3539.7 6403.63 3535.23 6415.35 3526.28C6427.07 3517.32 6437.89 3504.63 6447.82 3488.19L6456.37 3491.12C6449.69 3511.79 6437.16 3530.91 6418.77 3548.49C6400.54 3566.07 6378.16 3574.86 6351.63 3574.86C6321.03 3574.86 6297.35 3563.3 6280.59 3540.19C6263.98 3517.08 6255.68 3490.47 6255.68 3460.36C6255.68 3427.64 6265.37 3399.4 6284.74 3375.64C6304.1 3351.88 6329.33 3340 6360.42 3340ZM6346.26 3357.82C6327.71 3357.82 6313.54 3366.04 6303.78 3382.48C6298.57 3391.27 6294.83 3402.33 6292.55 3415.68H6395.58C6393.79 3399.4 6390.69 3387.28 6386.3 3379.3C6378.32 3364.98 6364.98 3357.82 6346.26 3357.82ZM6516.46 3492.1H6524.52C6528.26 3510.65 6533.31 3524.89 6539.66 3534.82C6551.05 3553.05 6567.73 3562.16 6589.71 3562.16C6601.91 3562.16 6611.52 3558.83 6618.52 3552.15C6625.68 3545.32 6629.26 3536.53 6629.26 3525.79C6629.26 3518.95 6627.22 3512.36 6623.15 3506.01C6619.09 3499.66 6611.92 3493.48 6601.67 3487.46L6574.33 3471.83C6554.31 3461.09 6539.58 3450.27 6530.14 3439.36C6520.7 3428.46 6515.98 3415.6 6515.98 3400.79C6515.98 3382.56 6522.49 3367.58 6535.51 3355.87C6548.53 3344.15 6564.89 3338.29 6584.58 3338.29C6593.21 3338.29 6602.65 3339.91 6612.9 3343.17C6623.32 3346.43 6629.18 3348.05 6630.48 3348.05C6633.41 3348.05 6635.52 3347.65 6636.83 3346.83C6638.13 3346.02 6639.27 3344.72 6640.24 3342.93H6646.1L6647.81 3411.04H6640.24C6636.99 3395.25 6632.59 3382.96 6627.06 3374.18C6616.97 3357.9 6602.4 3349.76 6583.36 3349.76C6571.97 3349.76 6563.01 3353.26 6556.5 3360.26C6549.99 3367.26 6546.74 3375.48 6546.74 3384.92C6546.74 3399.89 6557.97 3413.24 6580.43 3424.96L6612.66 3442.29C6647.32 3461.17 6664.66 3483.14 6664.66 3508.21C6664.66 3527.41 6657.42 3543.12 6642.93 3555.33C6628.61 3567.54 6609.81 3573.64 6586.53 3573.64C6576.77 3573.64 6565.7 3572.01 6553.33 3568.76C6540.96 3565.5 6533.64 3563.87 6531.36 3563.87C6529.4 3563.87 6527.7 3564.61 6526.23 3566.07C6524.77 3567.37 6523.63 3569 6522.81 3570.95H6516.46V3492.1Z" fill="#979797"/>
</svg>
